<?xml version="1.0" standalone="no"?>
<!DOCTYPE svg PUBLIC "-//W3C//DTD SVG 20010904//EN"
 "http://www.w3.org/TR/2001/REC-SVG-20010904/DTD/svg10.dtd">
<svg version="1.0" xmlns="http://www.w3.org/2000/svg"
 width="300.000000pt" height="143.000000pt" viewBox="0 0 300.000000 143.000000"
 preserveAspectRatio="xMidYMid meet">
<metadata>
Created by potrace 1.10, written by Peter Selinger 2001-2011
</metadata>
<g transform="translate(0.000000,143.000000) scale(0.100000,-0.100000)"
fill="#FF8000" stroke="none">
<path d="M840 1150 c-29 -22 -61 -40 -69 -40 -13 0 -13 -2 -2 -9 9 -6 10 -11
2 -15 -6 -4 -16 -4 -23 0 -7 4 -8 3 -4 -4 4 -6 -22 -35 -62 -69 -38 -32 -106
-89 -151 -127 -91 -76 -101 -90 -101 -140 0 -41 37 -76 81 -76 l28 0 3 -175 3
-175 33 -32 32 -33 583 0 582 0 3 31 c3 28 7 32 42 37 60 8 92 37 119 109 13
34 32 81 41 103 l16 40 2 -64 c2 -74 13 -91 56 -91 43 0 56 16 56 65 0 40 2
42 31 43 17 0 48 10 70 21 l39 21 0 -63 c0 -69 10 -87 50 -87 43 0 60 28 60
99 0 59 1 61 21 51 12 -7 18 -18 15 -26 -9 -24 19 -79 54 -104 40 -28 102 -31
153 -6 27 12 39 26 47 54 11 41 12 94 1 132 -16 56 -119 89 -186 58 -18 -8
-32 -8 -48 -1 -12 6 -51 11 -86 11 -60 1 -67 4 -88 31 -25 32 -48 39 -146 45
-63 3 -97 -12 -97 -44 0 -13 -9 -22 -27 -26 -39 -9 -58 -28 -73 -75 l-14 -40
-17 46 c-19 51 -43 75 -69 68 -12 -3 -16 4 -18 28 -3 44 -18 59 -56 59 -41 0
-56 -16 -56 -58 0 -26 -4 -33 -17 -31 -46 4 -74 -3 -101 -26 l-29 -24 -23 24
c-21 22 -30 24 -111 24 -72 0 -90 -4 -104 -19 -17 -19 -18 -18 -46 2 -34 25
-104 26 -150 2 -15 -7 -30 -14 -33 -14 -3 0 -6 21 -8 48 l-3 47 -45 0 -45 0
-5 -50 c-5 -45 -7 -49 -30 -48 -61 1 -60 1 -60 48 0 40 -3 47 -27 56 -21 8
-34 8 -52 -3 -23 -13 -24 -17 -27 -165 -4 -143 -3 -153 15 -163 26 -13 62 -12
81 3 10 8 15 29 14 65 l-1 52 38 0 c42 0 42 1 43 -70 1 -39 4 -46 29 -54 19
-7 37 -7 58 1 23 9 37 9 60 -1 16 -7 26 -16 22 -19 -4 -4 11 -1 33 6 25 9 67
13 119 11 110 -6 120 1 118 79 -1 63 10 102 28 92 5 -4 9 -40 9 -80 0 -63 3
-76 19 -85 30 -15 59 -12 80 9 11 11 21 16 23 10 2 -5 27 -18 56 -29 30 -11
51 -16 47 -10 -7 11 12 14 62 11 57 -4 73 12 73 76 0 64 6 63 32 -5 25 -65 23
-70 -19 -74 -31 -3 -38 -7 -45 -33 -4 -18 -4 -31 2 -33 6 -2 10 -8 10 -13 0
-6 -223 -8 -562 -7 l-563 3 -5 198 c-5 215 -5 215 -65 218 -16 1 -36 1 -42 0
-7 -1 -13 2 -13 7 0 11 30 26 43 23 5 -1 6 2 3 7 -8 14 41 55 55 47 7 -5 10
-4 5 3 -3 5 12 24 33 41 22 17 41 28 43 24 3 -5 3 -2 2 5 -2 7 7 18 21 24 13
6 22 16 18 21 -4 6 0 8 10 4 10 -4 16 -2 14 6 -1 7 4 11 11 9 8 -1 11 2 8 7
-7 11 119 116 151 125 29 9 153 -91 132 -106 -10 -7 -9 -8 5 -4 22 7 59 -21
49 -37 -3 -5 -2 -8 3 -4 5 3 33 -14 63 -39 29 -24 61 -44 70 -44 22 0 41 19
41 40 0 17 -76 90 -93 90 -5 0 -7 7 -4 14 4 9 1 13 -6 11 -20 -7 -68 41 -61
62 5 14 4 15 -4 4 -5 -7 -15 -10 -22 -6 -9 6 -9 10 1 17 11 8 10 9 -3 5 -9 -3
-18 -3 -20 1 -2 4 -25 24 -52 45 -69 52 -113 51 -186 -3z m133 19 c24 -13 249
-200 284 -236 23 -24 21 -53 -4 -53 -8 0 -77 55 -154 121 -97 85 -147 122
-164 122 -20 0 -106 -61 -145 -103 -3 -3 -68 -59 -145 -125 -77 -65 -143 -124
-147 -130 -15 -20 -1 -28 53 -29 l54 -1 3 -194 c1 -123 6 -199 13 -208 9 -10
120 -13 580 -13 l569 0 0 -25 0 -25 -576 0 -576 0 -29 29 -29 29 0 179 0 179
-34 -4 c-66 -8 -110 68 -68 116 28 34 415 363 437 372 28 12 53 12 78 -1z
m782 -569 l0 -160 -32 0 c-25 0 -31 4 -27 15 4 8 3 15 -1 15 -3 0 -13 -7 -21
-15 -20 -19 -73 -19 -101 0 -49 34 -53 140 -8 189 28 31 78 35 114 10 l24 -17
-5 62 -4 61 30 0 31 0 0 -160z m-915 85 l0 -55 65 0 65 0 0 55 c0 54 0 55 30
55 l30 0 0 -150 0 -150 -30 0 -30 0 0 70 0 70 -65 0 -65 0 0 -70 0 -70 -30 0
-30 0 0 150 0 150 30 0 c30 0 30 -1 30 -55z m1374 30 c21 -19 26 -33 26 -69 0
-37 -5 -48 -32 -71 -25 -21 -39 -26 -77 -24 l-46 3 3 -57 4 -57 -36 0 -36 0 0
150 0 150 84 0 c74 0 86 -3 110 -25z m-986 -61 c19 -13 22 -24 22 -90 0 -59 3
-74 15 -74 9 0 15 -9 15 -25 0 -21 -5 -25 -30 -25 -17 0 -33 7 -40 18 -10 16
-10 16 -20 0 -14 -23 -77 -24 -102 -1 -22 20 -24 76 -3 93 8 6 36 17 62 24 29
7 49 19 51 28 5 24 -33 28 -72 9 -32 -17 -34 -17 -45 2 -14 22 -15 21 24 41
38 20 94 20 123 0z m126 -6 l-6 -23 24 23 c30 27 77 29 109 3 20 -16 23 -29
27 -115 l4 -96 -33 0 -34 0 3 66 c5 93 -2 114 -38 114 -39 0 -50 -23 -50 -109
l0 -71 -30 0 -30 0 0 115 0 115 31 0 c27 0 30 -3 23 -22z m504 -60 c24 -72 42
-99 42 -63 0 8 10 44 21 80 20 60 24 65 51 65 35 0 36 8 -29 -160 -25 -63 -52
-123 -61 -134 -39 -43 -112 -43 -112 0 0 21 5 24 34 24 66 0 64 22 -25 238
-13 33 -12 34 22 30 29 -3 32 -8 57 -80z m472 60 l0 -22 16 22 c14 20 53 30
66 17 3 -3 3 -17 0 -31 -3 -18 -9 -23 -23 -19 -11 4 -26 -2 -38 -14 -17 -17
-21 -34 -21 -91 l0 -70 -30 0 -30 0 0 115 0 115 30 0 c24 0 30 -4 30 -22z
m259 8 c65 -34 70 -148 7 -198 -32 -26 -108 -24 -141 5 -33 27 -45 100 -25
147 23 55 99 76 159 46z m-1522 -78 c-3 -8 -6 -5 -6 6 -1 11 2 17 5 13 3 -3 4
-12 1 -19z"/>
<path d="M1604 594 c-14 -20 -15 -33 -8 -61 12 -50 46 -62 80 -28 28 28 31 61
8 93 -21 30 -59 29 -80 -4z m62 -18 c8 -35 -4 -68 -24 -64 -17 3 -28 48 -18
74 9 23 35 16 42 -10z"/>
<path d="M2089 696 c0 -1 -2 -22 -3 -48 l-2 -48 37 0 c43 0 62 18 57 57 -3 25
-8 29 -45 34 -24 3 -43 5 -44 5z m61 -36 c0 -5 0 -13 1 -17 0 -4 -9 -10 -20
-15 -18 -6 -21 -3 -21 17 0 18 5 25 20 25 11 0 20 -4 20 -10z"/>
<path d="M1163 543 c-28 -6 -45 -26 -37 -47 7 -19 45 -21 62 -4 13 13 17 59 5
57 -5 -1 -18 -4 -30 -6z"/>
<path d="M2492 608 c-7 -7 -12 -30 -12 -53 0 -48 13 -65 52 -65 31 0 48 23 48
65 0 42 -17 65 -48 65 -16 0 -33 -5 -40 -12z m58 -34 c11 -29 -2 -64 -24 -64
-17 0 -25 29 -19 64 7 33 31 34 43 0z"/>
<path d="M698 403 c6 -2 18 -2 25 0 6 3 1 5 -13 5 -14 0 -19 -2 -12 -5z"/>
<path d="M1348 403 c6 -2 18 -2 25 0 6 3 1 5 -13 5 -14 0 -19 -2 -12 -5z"/>
<path d="M678 363 c7 -3 16 -2 19 1 4 3 -2 6 -13 5 -11 0 -14 -3 -6 -6z"/>
<path d="M888 363 c7 -3 16 -2 19 1 4 3 -2 6 -13 5 -11 0 -14 -3 -6 -6z"/>
<path d="M1075 360 c17 -4 39 -8 50 -8 16 0 15 2 -5 8 -14 4 -36 8 -50 8 -22
0 -22 -1 5 -8z"/>
<path d="M1188 363 c6 -2 18 -2 25 0 6 3 1 5 -13 5 -14 0 -19 -2 -12 -5z"/>
<path d="M1368 363 c7 -3 16 -2 19 1 4 3 -2 6 -13 5 -11 0 -14 -3 -6 -6z"/>
<path d="M1533 363 c9 -2 25 -2 35 0 9 3 1 5 -18 5 -19 0 -27 -2 -17 -5z"/>
<path d="M1668 363 c7 -3 16 -2 19 1 4 3 -2 6 -13 5 -11 0 -14 -3 -6 -6z"/>
<path d="M808 353 c7 -3 16 -2 19 1 4 3 -2 6 -13 5 -11 0 -14 -3 -6 -6z"/>
<path d="M998 353 c7 -3 16 -2 19 1 4 3 -2 6 -13 5 -11 0 -14 -3 -6 -6z"/>
<path d="M1811 294 c0 -11 3 -14 6 -6 3 7 2 16 -1 19 -3 4 -6 -2 -5 -13z"/>
</g>
</svg>
